<svg width="216" height="104" viewBox="0 0 216 104" fill="none" xmlns="http://www.w3.org/2000/svg">
<g clip-path="url(#clip0_1_2463)">
<path d="M14.2 101.8H214.3V14.2L201.8 1.69995H1.69995V89.3L14.2 101.8Z" fill="white"/>
<path fill-rule="evenodd" clip-rule="evenodd" d="M0.199951 0.199951H202.421L215.8 13.5786V103.3H13.5786L0.199951 89.9213V0.199951ZM3.19995 5.32127V88.6786L12.7 98.1786V14.8213L3.19995 5.32127ZM5.32127 3.19995L14.8213 12.7H210.679L201.179 3.19995H5.32127ZM212.8 100.3H15.7V15.7H212.8V100.3Z" fill="#001A72"/>
<path d="M51.1 49.0999C51.1 52.0999 49.1 54.6999 44.3 54.6999C42.2 54.6999 40.5 54.1999 39 53.5999V49.3999C40.6 50.1999 42.5 50.6999 44.2 50.6999C45.8 50.6999 46.6 50.1999 46.6 49.2999C46.6 46.4999 39 47.3999 39 41.6999C39 38.1999 41.8 36.0999 45.7 36.0999C47.3 36.0999 48.8 36.4999 50.4 37.3999V41.6999C48.3 40.3999 46.8 39.9999 45.6 39.9999C44.2 39.9999 43.4 40.4999 43.4 41.3999C43.3 44.0999 51.1 43.0999 51.1 49.0999Z" fill="#001A72"/>
<path d="M54.8999 45.3999C54.8999 40.2999 59.0999 36.0999 64.1999 36.0999C69.2999 36.0999 73.4999 40.2999 73.4999 45.3999C73.4999 50.4999 69.2999 54.6999 64.1999 54.6999C59.0999 54.6999 54.8999 50.4999 54.8999 45.3999ZM68.8999 45.3999C68.8999 42.5999 66.7999 40.4999 64.1999 40.4999C61.5999 40.4999 59.4999 42.5999 59.4999 45.3999C59.4999 48.1999 61.5999 50.2999 64.1999 50.2999C66.7999 50.2999 68.8999 48.1999 68.8999 45.3999Z" fill="#001A72"/>
<path d="M83.9 35.0999V36.5999H89.8L87.8 40.7999H84V54.4H79.7V40.7H76.7V36.5H79.7V34.7999C79.7 29.3999 82.5 26.7 86.9 26.7C88 26.7 89 26.9 89.9 27.1V31.2999C89.1 30.9999 88.2 30.9 87.3 30.9C84.9 30.9 83.9 32.3999 83.9 35.0999Z" fill="#001A72"/>
<path d="M98.7 40.6999V47.7999C98.7 49.6999 99.8 50.4999 101.5 50.4999C102.6 50.4999 103.7 50.1999 104.6 49.5999V53.8999C103.4 54.3999 102.3 54.6999 100.7 54.6999C96.8 54.6999 94.4 52.5999 94.4 48.2999V40.6999H91.8V36.4999H94.4V31.9999L98.7 30.8999V36.5999H104.6V40.7999L98.7 40.6999Z" fill="#001A72"/>
<path d="M135.8 36.5L130 54.3H125.7L121.8 42.1L117.8 54.3H113.5L107.8 36.5H112.7L115.9 48.4L119.7 36.5H124L127.8 48.4L131 36.5H135.8Z" fill="#001A72"/>
<path d="M138 45.3999C138 40.2999 141.7 36.0999 146.8 36.0999C148.8 36.0999 150.4 36.6999 151.6 37.6999V36.4999H155.9V54.2999H151.7V52.8999C150.5 53.9999 148.8 54.6999 146.7 54.6999C141.8 54.6999 138 50.4999 138 45.3999ZM152 45.3999C152 42.5999 149.9 40.4999 147.3 40.4999C144.7 40.4999 142.6 42.5999 142.6 45.3999C142.6 48.1999 144.7 50.2999 147.3 50.2999C149.9 50.3999 152 48.1999 152 45.3999Z" fill="#001A72"/>
<path d="M162 36.5H166.2V39C167.5 36.6 169.9 36.2 172 36.2V41.2999C169 40.4999 166.3 42.2 166.3 46V54.2999H162V36.5Z" fill="#001A72"/>
<path d="M185.5 50.4999C187.2 50.4999 189.2 50.1999 191.2 49.3999L189 53.8999C188 54.2999 186.5 54.6999 184.7 54.6999C178.4 54.6999 174.6 50.7999 174.6 45.3999C174.6 40.2999 178.4 36.0999 183.9 36.0999C187.6 36.0999 190.6 37.9999 191.8 40.3999V46.7999H179.2C179.9 49.0999 182 50.4999 185.5 50.4999ZM179.2 43.4999H188.5C187.9 41.3999 186.1 40.0999 183.8 40.0999C181.6 40.0999 179.9 41.4999 179.2 43.4999Z" fill="#001A72"/>
<path d="M63.9001 69.3999V81.0999H59.6V70.0999C59.6 68.1999 58.2 67.0999 56.8 67.0999C55.3 67.0999 54 68.1999 54 70.0999V81.0999H49.7001V70.0999C49.7001 68.1999 48.3001 67.0999 46.9001 67.0999C45.4001 67.0999 44.1 68.1999 44.1 70.0999V81.0999H39.8V63.2999H44V64.5999C45.3 63.2999 46.6 62.8999 48.3 62.8999C50.2 62.8999 51.8001 63.6999 52.9001 65.1999C54.4001 63.5999 56.2 62.8999 58.3 62.8999C61.3 62.8999 63.9001 65.5999 63.9001 69.3999Z" fill="#001A72"/>
<path d="M68.3999 72.1999C68.3999 67.0999 72.0999 62.8999 77.1999 62.8999C79.1999 62.8999 80.7999 63.4999 81.9999 64.4999V63.2999H86.2999V81.0999H82.0999V79.6999C80.8999 80.7999 79.1999 81.4999 77.0999 81.4999C72.1999 81.4999 68.3999 77.2999 68.3999 72.1999ZM82.3999 72.1999C82.3999 69.3999 80.2999 67.2999 77.6999 67.2999C75.0999 67.2999 72.9999 69.3999 72.9999 72.1999C72.9999 74.9999 75.0999 77.0999 77.6999 77.0999C80.2999 77.0999 82.3999 74.9999 82.3999 72.1999Z" fill="#001A72"/>
<path d="M92.2 63.2999H96.4V64.5999C97.7 63.2999 99.4 62.8999 101.1 62.8999C104.8 62.8999 107.8 65.6999 107.8 69.4999V80.9999H103.5V70.4999C103.5 68.5999 102 67.0999 100.1 67.0999C98.2 67.0999 96.7 68.5999 96.7 70.4999V81.0999H92.4V63.2999H92.2Z" fill="#001A72"/>
<path d="M125 75.8999C125 78.8999 123 81.4999 118.2 81.4999C116.1 81.4999 114.4 80.9999 112.9 80.3999V76.1999C114.5 76.9999 116.4 77.4999 118.1 77.4999C119.7 77.4999 120.5 76.9999 120.5 76.0999C120.5 73.2999 112.9 74.1999 112.9 68.4999C112.9 64.9999 115.7 62.8999 119.6 62.8999C121.2 62.8999 122.7 63.2999 124.3 64.1999V68.4999C122.2 67.1999 120.7 66.7999 119.5 66.7999C118.1 66.7999 117.3 67.2999 117.3 68.1999C117.3 70.8999 125 69.8999 125 75.8999Z" fill="#001A72"/>
<path d="M134.4 63.3V81.1H130V63.3H134.4Z" fill="#001A72"/>
<path d="M138.9 72.1999C138.9 67.0999 143.1 62.8999 148.2 62.8999C153.3 62.8999 157.5 67.0999 157.5 72.1999C157.5 77.2999 153.3 81.4999 148.2 81.4999C143.1 81.4999 138.9 77.2999 138.9 72.1999ZM152.9 72.1999C152.9 69.3999 150.8 67.2999 148.2 67.2999C145.6 67.2999 143.5 69.3999 143.5 72.1999C143.5 74.9999 145.6 77.0999 148.2 77.0999C150.8 77.0999 152.9 74.9999 152.9 72.1999Z" fill="#001A72"/>
<path d="M161.9 63.2999H166.1V64.5999C167.4 63.2999 169.1 62.8999 170.8 62.8999C174.5 62.8999 177.5 65.6999 177.5 69.4999V80.9999H173.2V70.4999C173.2 68.5999 171.7 67.0999 169.8 67.0999C167.9 67.0999 166.4 68.5999 166.4 70.4999V81.0999H162.1V63.2999H161.9Z" fill="#001A72"/>
<path d="M184.2 81.1H183.5V76.8H182V76.2H185.8V76.8H184.3V81.1H184.2Z" fill="#001A72"/>
<path d="M188.8 81.1L187.7 78.2C187.6 77.8 187.5 77.5 187.4 77.2C187.4 77.6 187.4 78 187.4 78.3V81.2H186.7V76.3H187.6L188.8 79.4C189 79.8 189 79.9 189.1 80.3C189.2 79.9 189.3 79.7 189.4 79.4L190.6 76.3H191.5V81.2H190.8V78.3C190.8 78 190.8 77.6 190.8 77.2C190.7 77.6 190.6 77.9 190.4 78.3L189.3 81.2L188.8 81.1Z" fill="#001A72"/>
</g>
<defs>
<clipPath id="clip0_1_2463">
<rect width="216" height="104" fill="white"/>
</clipPath>
</defs>
</svg>
